# xmcd
#
# Track frame offsets:
#	150
#	18557
#	36652
#	58125
#	75477
#	99985
#	139150
#	169590
#	208737
#	232790
#
# Disc length: 4015 seconds
#
# Revision: 4
# Processed by: cddbd v1.5.2PL0 Copyright (c) Steve Scherf et al.
# Submitted via: audiograbber 1.83.01
#
DISCID=800fad0a
DTITLE=Various Artist - Wintertime Blues The Benefit Concert [CD2]
DYEAR=2000
DGENRE=Rock
TTITLE0=Susan Tedeschi - Angel From Montgomery
TTITLE1=Cry Of Love - Pretty As you Please
TTITLE2=Cry Of Love - Peace Pipe
TTITLE3=Gov't Mule - Bad Little Doggie
TTITLE4=Gov't Mule - Lay Your Burden Down (With Johnny Neel)
TTITLE5=Gov't Mule - Fallen Down (With Johnny Neel)
TTITLE6=Gov't Mule - Devil Likes It Slow (With Johnny Neel and Jimmy Herring)
TTITLE7=Gov't Mule - Spoonful (With Col. Bruce Hampton, Johnny Neel and Mike Barn
TTITLE7=es)
TTITLE8=Gov't Mule - When The Blues Come Knockin' (With Little Milton and Johnny 
TTITLE8=Neel)
TTITLE9=Gov't Mule - Merry Christmas Baby (With Little Milton, Susan Tedeschi, 
TTITLE9=Derek Trucks and Johnny Neel)
EXTD=YEAR: 2000 ID3G:   0
EXTT0=
EXTT1=
EXTT2=
EXTT3=
EXTT4=
EXTT5=
EXTT6=
EXTT7=
EXTT8=
EXTT9=
PLAYORDER=
